<svg id="visual" viewBox="0 0 900 600" width="900" height="600" xmlns="http://www.w3.org/2000/svg" xmlns:xlink="http://www.w3.org/1999/xlink" version="1.1"><path d="M0 393L21.5 392.2C43 391.3 86 389.7 128.8 396.7C171.7 403.7 214.3 419.3 257.2 415.2C300 411 343 387 385.8 373C428.7 359 471.3 355 514.2 356C557 357 600 363 642.8 371.2C685.7 379.3 728.3 389.7 771.2 402C814 414.3 857 428.7 878.5 435.8L900 443L900 601L878.5 601C857 601 814 601 771.2 601C728.3 601 685.7 601 642.8 601C600 601 557 601 514.2 601C471.3 601 428.7 601 385.8 601C343 601 300 601 257.2 601C214.3 601 171.7 601 128.8 601C86 601 43 601 21.5 601L0 601Z" fill="#fff1da"></path><path d="M0 394L21.5 406.2C43 418.3 86 442.7 128.8 443.5C171.7 444.3 214.3 421.7 257.2 412.2C300 402.7 343 406.3 385.8 407C428.7 407.7 471.3 405.3 514.2 409.8C557 414.3 600 425.7 642.8 427.5C685.7 429.3 728.3 421.7 771.2 426C814 430.3 857 446.7 878.5 454.8L900 463L900 601L878.5 601C857 601 814 601 771.2 601C728.3 601 685.7 601 642.8 601C600 601 557 601 514.2 601C471.3 601 428.7 601 385.8 601C343 601 300 601 257.2 601C214.3 601 171.7 601 128.8 601C86 601 43 601 21.5 601L0 601Z" fill="#f3c6a3"></path><path d="M0 510L21.5 508.2C43 506.3 86 502.7 128.8 500.3C171.7 498 214.3 497 257.2 496.5C300 496 343 496 385.8 496.7C428.7 497.3 471.3 498.7 514.2 500.7C557 502.7 600 505.3 642.8 506.2C685.7 507 728.3 506 771.2 500.3C814 494.7 857 484.3 878.5 479.2L900 474L900 601L878.5 601C857 601 814 601 771.2 601C728.3 601 685.7 601 642.8 601C600 601 557 601 514.2 601C471.3 601 428.7 601 385.8 601C343 601 300 601 257.2 601C214.3 601 171.7 601 128.8 601C86 601 43 601 21.5 601L0 601Z" fill="#ea977c"></path><path d="M0 488L21.5 495.5C43 503 86 518 128.8 523.3C171.7 528.7 214.3 524.3 257.2 520C300 515.7 343 511.3 385.8 512.8C428.7 514.3 471.3 521.7 514.2 518.3C557 515 600 501 642.8 502.7C685.7 504.3 728.3 521.7 771.2 521C814 520.3 857 501.7 878.5 492.3L900 483L900 601L878.5 601C857 601 814 601 771.2 601C728.3 601 685.7 601 642.8 601C600 601 557 601 514.2 601C471.3 601 428.7 601 385.8 601C343 601 300 601 257.2 601C214.3 601 171.7 601 128.8 601C86 601 43 601 21.5 601L0 601Z" fill="#dd6369"></path><path d="M0 554L21.5 554.2C43 554.3 86 554.7 128.8 554.8C171.7 555 214.3 555 257.2 556.5C300 558 343 561 385.8 563.3C428.7 565.7 471.3 567.3 514.2 567.3C557 567.3 600 565.7 642.8 562.2C685.7 558.7 728.3 553.3 771.2 550.8C814 548.3 857 548.7 878.5 548.8L900 549L900 601L878.5 601C857 601 814 601 771.2 601C728.3 601 685.7 601 642.8 601C600 601 557 601 514.2 601C471.3 601 428.7 601 385.8 601C343 601 300 601 257.2 601C214.3 601 171.7 601 128.8 601C86 601 43 601 21.5 601L0 601Z" fill="#c62368"></path></svg>